<svg xmlns="http://www.w3.org/2000/svg" version="1.1" xmlns:xlink="http://www.w3.org/1999/xlink" xmlns:svgjs="http://svgjs.dev/svgjs" width="2048" height="1152" preserveAspectRatio="none" viewBox="0 0 2048 1152"><g mask="url(&quot;#SvgjsMask1336&quot;)" fill="none"><rect width="2048" height="1152" x="0" y="0" fill="rgba(30, 30, 30, 1)"></rect><path d="M -1139.7820577418227,444 C -934.98,575.4 -525.38,1124.8 -115.78205774182265,1101 C 293.82,1077.2 498.62,370.8 908.2179422581773,325 C 1317.82,279.2 1704.26,823.2 1932.2179422581773,872 C 2160.17,920.8 2024.84,629.6 2048,569" stroke="rgba(172, 83, 216, 1)" stroke-width="2"></path><path d="M -890.5480235760187,744 C -685.75,646.6 -276.15,210.2 133.45197642398125,257 C 543.05,303.8 747.85,1022 1157.4519764239813,978 C 1567.05,934 2003.34,112.2 2181.4519764239813,37 C 2359.56,-38.2 2074.69,489 2048,602" stroke="rgba(172, 83, 216, 1)" stroke-width="2"></path><path d="M -1106.291980982937,430 C -901.49,548.2 -491.89,1068 -82.29198098293705,1021 C 327.31,974 532.11,226.6 941.708019017063,195 C 1351.31,163.4 1744.45,838.8 1965.708019017063,863 C 2186.97,887.2 2031.54,425.4 2048,316" stroke="rgba(172, 83, 216, 1)" stroke-width="2"></path></g><defs><mask id="SvgjsMask1336"><rect width="2048" height="1152" fill="#ffffff"></rect></mask></defs></svg>